<svg xmlns="http://www.w3.org/2000/svg" viewBox="0 0 694.52 422.09"><defs><style>.cls-1{opacity:0.68;}.cls-2{fill:#e2cdfc;}.cls-3{fill:#c19ef5;}.cls-11,.cls-12,.cls-13,.cls-19,.cls-20,.cls-22,.cls-23,.cls-29,.cls-30,.cls-33,.cls-4{fill:none;}.cls-11,.cls-12,.cls-13,.cls-22,.cls-29,.cls-4{stroke:#a498a6;}.cls-11,.cls-12,.cls-13,.cls-19,.cls-20,.cls-21,.cls-22,.cls-23,.cls-29,.cls-33,.cls-4,.cls-6{stroke-linecap:round;stroke-linejoin:round;}.cls-4{stroke-width:7.36px;}.cls-5{fill:#e1735c;}.cls-21,.cls-6,.cls-9{fill:#5a525d;}.cls-19,.cls-21,.cls-6{stroke:#5a525d;}.cls-6{stroke-width:3.35px;}.cls-7{fill:#706572;}.cls-8{fill:#a498a6;}.cls-10{fill:#b7aaba;}.cls-11{stroke-width:5.93px;}.cls-12{stroke-width:6.39px;}.cls-13{stroke-width:6.94px;}.cls-14{fill:#5d515d;}.cls-15{fill:#f2d190;}.cls-16{fill:#2d1a14;}.cls-17{fill:#fff;}.cls-18{fill:#2d201b;}.cls-19{stroke-width:1.37px;}.cls-20{stroke:#5d515d;stroke-width:1.11px;}.cls-21{stroke-width:3.56px;}.cls-22{stroke-width:6.24px;}.cls-23{stroke:#2d1a14;stroke-width:0.4px;}.cls-24{fill:#6095fb;}.cls-25{fill:#e1725f;}.cls-26{fill:#f0e8e3;}.cls-27{fill:#3d333d;}.cls-28{fill:#dedcdc;}.cls-29{stroke-width:3.64px;}.cls-31{fill:#faf1e4;}.cls-32{fill:#867187;}.cls-33{stroke:#d7ad89;stroke-width:1.65px;}</style></defs><g id="OBJECTS"><g class="cls-1"><path class="cls-2" d="M663.43,448.28H74.67c-7-21.27-2-45.67,13.65-61.69s38.05-24.25,60.37-26.12c33.21-2.79,68,7.2,99.3-4.24,29.26-10.7,49-37.93,64.13-65.18s28-56.67,50.76-78c22.09-20.65,51.49-31.63,80.85-38.85,21-5.16,42.6-8.67,64.16-7.15A139.23,139.23,0,0,1,634.46,334c-1.9,9.24-4.73,18.87-2,27.92,3.23,10.86,13.46,17.84,20.82,26.47C666.45,403.88,670.57,429.2,663.43,448.28Z" transform="translate(-27.74 -38.82)"/><circle class="cls-2" cx="43.89" cy="312.81" r="13.57"/><circle class="cls-2" cx="245.44" cy="249.04" r="7.63" transform="translate(-131.95 207.68) rotate(-45)"/><circle class="cls-2" cx="635.69" cy="307.72" r="10.17"/><circle class="cls-2" cx="627.21" cy="182.24" r="3.39"/><path class="cls-2" d="M680.39,311.78a5.94,5.94,0,1,1-5.94-5.94A5.93,5.93,0,0,1,680.39,311.78Z" transform="translate(-27.74 -38.82)"/><circle class="cls-2" cx="186.33" cy="226.33" r="3.39"/><circle class="cls-2" cx="8.28" cy="280.59" r="5.09"/></g><path class="cls-2" d="M78.82,306a5.67,5.67,0,1,1,5.67-5.66A5.66,5.66,0,0,1,78.82,306Z" transform="translate(-27.74 -38.82)"/><circle class="cls-2" cx="143.59" cy="355.39" r="42.91" transform="translate(-263.03 374.67) rotate(-76.72)"/><path class="cls-2" d="M248,310.05a5.67,5.67,0,1,1-5.67-5.67A5.67,5.67,0,0,1,248,310.05Z" transform="translate(-27.74 -38.82)"/><path class="cls-3" d="M57.53,368.45C51.25,364.08,35,357.33,27.74,362c5.28,5.55,23.85,12.83,31.16,7.26C58.28,368.57,57.88,368.92,57.53,368.45Z" transform="translate(-27.74 -38.82)"/><path class="cls-3" d="M51.76,352.26c-2.09-6-9.74-18.36-16.87-18.73.86,6.27,9.8,20.13,17.4,19.93C52.21,352.7,51.77,352.75,51.76,352.26Z" transform="translate(-27.74 -38.82)"/><path class="cls-3" d="M52.26,351.81c-.43-6.31,1.68-20.72,8.08-23.87,1.7,6.09-1,22.36-8.08,25.19C52,352.4,52.44,352.26,52.26,351.81Z" transform="translate(-27.74 -38.82)"/><path class="cls-3" d="M49.33,338.19c2.24-5.92,4.38-20.32-.83-25.19-3.39,5.34-5.48,21.71.46,26.45C49.39,338.82,49,338.57,49.33,338.19Z" transform="translate(-27.74 -38.82)"/><path class="cls-3" d="M59.14,367c.46-7.63,5.25-24.58,13.42-27.36,1.07,7.57-4.73,26.65-13.64,28.93C58.76,367.63,59.29,367.53,59.14,367Z" transform="translate(-27.74 -38.82)"/><path class="cls-3" d="M65.75,384.43C59.48,380.06,43.22,373.31,36,378c5.28,5.54,23.85,12.82,31.16,7.25C66.51,384.55,66.11,384.9,65.75,384.43Z" transform="translate(-27.74 -38.82)"/><path class="cls-3" d="M65.94,383.27c.47-7.63,5.26-24.57,13.42-27.36,1.08,7.58-4.73,26.66-13.63,28.94C65.57,383.94,66.09,383.84,65.94,383.27Z" transform="translate(-27.74 -38.82)"/><path class="cls-3" d="M74.78,399c-6.27-4.37-22.53-11.12-29.79-6.44,5.28,5.54,23.85,12.82,31.16,7.25C75.54,399.08,75.14,399.43,74.78,399Z" transform="translate(-27.74 -38.82)"/><path class="cls-3" d="M75.06,400.65c.47-7.64,5.25-24.58,13.42-27.37,1.08,7.58-4.73,26.66-13.63,28.94C74.69,401.31,75.21,401.22,75.06,400.65Z" transform="translate(-27.74 -38.82)"/><path class="cls-3" d="M86.4,414.26c-6.27-4.37-22.53-11.12-29.78-6.44,5.27,5.54,23.84,12.82,31.15,7.25C87.16,414.38,86.76,414.73,86.4,414.26Z" transform="translate(-27.74 -38.82)"/><path class="cls-3" d="M88,412.77c.47-7.63,5.25-24.58,13.42-27.36,1.08,7.57-4.73,26.66-13.63,28.94C87.64,413.44,88.16,413.34,88,412.77Z" transform="translate(-27.74 -38.82)"/><path class="cls-3" d="M104.48,435.05c-6.28-4.37-22.54-11.12-29.79-6.44,5.28,5.54,23.85,12.82,31.16,7.25C105.23,435.17,104.83,435.52,104.48,435.05Z" transform="translate(-27.74 -38.82)"/><path class="cls-3" d="M106.09,433.56c.46-7.63,5.25-24.57,13.42-27.36,1.07,7.58-4.73,26.66-13.64,28.94C105.71,434.23,106.24,434.13,106.09,433.56Z" transform="translate(-27.74 -38.82)"/><path class="cls-3" d="M117.33,447.19C110.8,442.82,95,436.42,87.93,441c4.83,5.08,20.8,11.6,29.07,8.4Z" transform="translate(-27.74 -38.82)"/><path class="cls-3" d="M117.67,444.92c-30.73-27-47.41-52.64-56.26-70.64C49.88,350.84,48.77,335,48.76,334.79a.6.6,0,0,0-.64-.56.61.61,0,0,0-.57.64c0,.16,1.13,16.23,12.74,39.87C69.24,393,86.17,419,117.45,446.34Z" transform="translate(-27.74 -38.82)"/><path class="cls-3" d="M117.57,310.6c-5-7.63-20.08-22.32-30.2-20.33,3.4,8.48,20.78,24.78,31.36,21.83C118.35,311.06,117.76,311.28,117.57,310.6Z" transform="translate(-27.74 -38.82)"/><path class="cls-3" d="M118.34,290.08c.31-7.55-2.69-24.69-10.43-28.25-1.83,7.34,2,26.68,10.48,29.82C118.64,290.77,118.13,290.63,118.34,290.08Z" transform="translate(-27.74 -38.82)"/><path class="cls-3" d="M119.09,289.8c2.31-7.19,11-22.24,19.53-22.91-.82,7.51-11,24.36-20.12,24.37C118.57,290.35,119.09,290.39,119.09,289.8Z" transform="translate(-27.74 -38.82)"/><path class="cls-3" d="M121.86,273.39c5.1-5.57,13.85-20.61,10.22-28.32-6.12,4.44-15.68,21.67-11.19,29.55C121.65,274.12,121.36,273.68,121.86,273.39Z" transform="translate(-27.74 -38.82)"/><path class="cls-3" d="M120,309.66c3.9-8.27,16.71-25,27-24.43-2.16,8.88-17,27.49-27.93,26.08C119.3,310.23,119.93,310.35,120,309.66Z" transform="translate(-27.74 -38.82)"/><path class="cls-3" d="M119.62,332c-5-7.63-20.08-22.31-30.2-20.33,3.4,8.48,20.79,24.78,31.36,21.83C120.41,332.43,119.81,332.65,119.62,332Z" transform="translate(-27.74 -38.82)"/><path class="cls-3" d="M120.35,330.77c3.89-8.26,16.7-24.95,27-24.43-2.16,8.89-17,27.49-27.93,26.08C119.64,331.34,120.26,331.47,120.35,330.77Z" transform="translate(-27.74 -38.82)"/><path class="cls-3" d="M123.21,352.09c-5-7.63-20.08-22.32-30.2-20.33,3.4,8.48,20.79,24.78,31.36,21.83C124,352.55,123.4,352.77,123.21,352.09Z" transform="translate(-27.74 -38.82)"/><path class="cls-3" d="M122.78,354.08c3.89-8.26,16.7-24.95,27-24.43-2.16,8.89-17.05,27.49-27.93,26.08C122.07,354.65,122.69,354.78,122.78,354.08Z" transform="translate(-27.74 -38.82)"/><path class="cls-3" d="M129.34,374.21c-5-7.63-20.08-22.32-30.2-20.33,3.4,8.48,20.78,24.78,31.36,21.83C130.12,374.67,129.53,374.89,129.34,374.21Z" transform="translate(-27.74 -38.82)"/><path class="cls-3" d="M131.78,373.27c3.9-8.27,16.71-24.95,27-24.43-2.16,8.88-17,27.49-27.93,26.08C131.07,373.84,131.7,374,131.78,373.27Z" transform="translate(-27.74 -38.82)"/><path class="cls-3" d="M140.2,405.27c-5-7.62-20.09-22.31-30.2-20.33,3.4,8.49,20.78,24.78,31.35,21.84C141,405.74,140.38,406,140.2,405.27Z" transform="translate(-27.74 -38.82)"/><path class="cls-3" d="M142.64,404.33c3.89-8.26,16.7-24.94,27-24.42-2.16,8.88-17,27.48-27.93,26.08C141.93,404.9,142.55,405,142.64,404.33Z" transform="translate(-27.74 -38.82)"/><path class="cls-3" d="M150.47,422.05c-22.16-43.55-29.32-79.38-31.18-103.26-2.41-31.12,3.39-49.24,3.44-49.42a.72.72,0,0,0-1.37-.45c-.06.18-5.93,18.51-3.51,49.88,1.86,24.2,9.13,60.56,31.75,104.74Z" transform="translate(-27.74 -38.82)"/><line class="cls-4" x1="262.88" y1="263.49" x2="262.88" y2="304.65"/><path class="cls-5" d="M288.32,178.82a15.09,15.09,0,0,0,.46-4.9,5,5,0,0,0-2.58-4c-1.05-.49-2.41-.56-3-1.52a4.94,4.94,0,0,1-.49-1.58,5.36,5.36,0,0,0-1.16-2.18,2,2,0,0,0-1.11-.71,1.87,1.87,0,0,0-1.7,1,3.91,3.91,0,0,0-.34,3.35,2.08,2.08,0,0,0-2.56-.2,2,2,0,0,0-.47,2.44,3,3,0,0,0-3.48,1.91,6.19,6.19,0,0,0,.53,4.17A12.4,12.4,0,0,0,281.3,184a7.06,7.06,0,0,0,3-.07C286.5,183.34,287.86,181,288.32,178.82Z" transform="translate(-27.74 -38.82)"/><path class="cls-6" d="M275.45,428.6A12.47,12.47,0,1,1,263,441.07a12.47,12.47,0,0,1,12.47-12.47m0-3a15.47,15.47,0,1,0,15.47,15.47,15.49,15.49,0,0,0-15.47-15.47Z" transform="translate(-27.74 -38.82)"/><path class="cls-7" d="M275.45,451.88a10.81,10.81,0,1,1,10.81-10.81A10.82,10.82,0,0,1,275.45,451.88Z" transform="translate(-27.74 -38.82)"/><path class="cls-8" d="M275.45,431.92a9.15,9.15,0,1,1-9.15,9.15,9.15,9.15,0,0,1,9.15-9.15m0-3.32a12.47,12.47,0,1,0,12.47,12.47,12.47,12.47,0,0,0-12.47-12.47Z" transform="translate(-27.74 -38.82)"/><path class="cls-7" d="M279.66,441.28a4.33,4.33,0,1,1-4.33-4.32A4.32,4.32,0,0,1,279.66,441.28Z" transform="translate(-27.74 -38.82)"/><path class="cls-8" d="M275.45,431.92a9.15,9.15,0,1,1-9.15,9.15,9.15,9.15,0,0,1,9.15-9.15m0-3.32a12.47,12.47,0,1,0,12.47,12.47,12.47,12.47,0,0,0-12.47-12.47Z" transform="translate(-27.74 -38.82)"/><path class="cls-8" d="M279.66,441.28a4.33,4.33,0,1,1-4.33-4.32A4.32,4.32,0,0,1,279.66,441.28Z" transform="translate(-27.74 -38.82)"/><path class="cls-9" d="M345.82,348.1a49.62,49.62,0,1,1-49.62,49.62,49.63,49.63,0,0,1,49.62-49.62m0-5.79a55.41,55.41,0,1,0,55.41,55.41,55.47,55.47,0,0,0-55.41-55.41Z" transform="translate(-27.74 -38.82)"/><rect class="cls-10" x="298.14" y="394.91" width="97.32" height="6.28" rx="2.57" transform="translate(-207.63 322.99) rotate(-45)"/><circle class="cls-11" cx="345.82" cy="397.72" r="49.62" transform="translate(-207.68 322.2) rotate(-45)"/><rect class="cls-10" x="316.48" y="310.81" width="6.4" height="95.44" rx="2.56"/><rect class="cls-10" x="342.38" y="347.79" width="7.34" height="98.17" rx="2.78" transform="translate(715.19 12) rotate(90)"/><rect class="cls-10" x="343.03" y="347.15" width="6.57" height="98.41" rx="2.64" transform="translate(-206.57 322.18) rotate(-45)"/><path class="cls-12" d="M277.94,433.65V358.72A12.74,12.74,0,0,1,290.68,346H348.1" transform="translate(-27.74 -38.82)"/><rect class="cls-8" x="239.63" y="257.19" width="75.86" height="7.34" rx="3.23"/><path class="cls-13" d="M329.53,345.06v-14l1.15-59.23a11.93,11.93,0,0,1,11.93-11.7h6" transform="translate(-27.74 -38.82)"/><rect class="cls-14" x="304.1" y="226.08" width="88.84" height="59.06"/><path class="cls-15" d="M284.65,184.33c1.34-.48,2.69-1,4-1.6,4.68,1.85,10.91,7.69,14.57,12.17a166.91,166.91,0,0,1,11.3,16.7c10.05,16.75,22.37,13.54,37.44,23.84,4,2.76,9.22,8.27,9.83,13.41.71,5.87-4.05,5.73-9.67,4.69-22.79-4.22-36-9.75-51.95-26.88-4.54-4.85-13.95-31.11-17.86-41.6C283.1,184.84,283.88,184.61,284.65,184.33Z" transform="translate(-27.74 -38.82)"/><path class="cls-15" d="M289.47,416.26c.64,4.62-2.06,9.75-6.39,12.17-2.94,1.64-6.32,2-9.5,3.07a26.07,26.07,0,0,0-14.7,12.3l41.62-2.24.67-26.3Z" transform="translate(-27.74 -38.82)"/><path class="cls-16" d="M273.58,431.5c3.18-1,6.56-1.43,9.5-3.07a13,13,0,0,0,5.55-6.31c.8,1.11,1.57,2.24,2.43,3.31a10.64,10.64,0,0,0,2.94,2.69,5.45,5.45,0,0,0,4,.53,8.74,8.74,0,0,0,2.9-1.32l-.36,14.23-41.62,2.24A26.07,26.07,0,0,1,273.58,431.5Z" transform="translate(-27.74 -38.82)"/><path class="cls-17" d="M259.77,445.91l40.51-2.18a2.31,2.31,0,0,0,2.15-2.17h0a1.89,1.89,0,0,0-2.05-1.93l-40.51,2.18a2.3,2.3,0,0,0-2.15,2.16h0A1.9,1.9,0,0,0,259.77,445.91Z" transform="translate(-27.74 -38.82)"/><path class="cls-15" d="M337.88,419c.94,4.88-1.25,10.25-5.2,12.73-2.67,1.69-5.86,2.07-8.8,3.11a22.74,22.74,0,0,0-13.09,12.74l39.41-1.8-1.26-27.66Z" transform="translate(-27.74 -38.82)"/><path class="cls-16" d="M323.88,434.84c2.94-1,6.13-1.42,8.8-3.11a11.86,11.86,0,0,0,4.83-6.57c.84,1.18,1.65,2.38,2.54,3.52a12.19,12.19,0,0,0,3,2.87,5,5,0,0,0,3.8.62,7.52,7.52,0,0,0,2.67-1.36l.68,15-39.41,1.8A22.74,22.74,0,0,1,323.88,434.84Z" transform="translate(-27.74 -38.82)"/><rect class="cls-17" x="309.68" y="444.62" width="42.38" height="4.32" rx="2.07" transform="translate(-47.81 -23.24) rotate(-2.62)"/><path class="cls-5" d="M378,211.18a49.15,49.15,0,0,0-.78,7.47c-.1,3.75.36,7.84,2.9,10.53a12.1,12.1,0,0,1-6.55,4.74,11.34,11.34,0,0,1-7.83-.78c-.66-.32-1.29-.71-1.92-1.09l-2.3-1.42c3.33-5.92,6.18-12.47,5.29-19.26,1.66-.32,4-1,5.68-1.36a9.62,9.62,0,0,1,2.19-.25C375.8,209.81,376.81,211.38,378,211.18Z" transform="translate(-27.74 -38.82)"/><path class="cls-16" d="M398.73,318.58a163.36,163.36,0,0,0-2.81-27.11c-.92-4.73-2.27-9.69-5.8-13C385.34,274,378,273.84,371.47,274c-9.09.23-18.91,1.15-24.57,9.19-3.22,4.56-3.46,9.64-3.34,15,.26,11.65.47,24.08,3.47,35.43,2.3,8.75,7.29,17.07,16.87,18.93,13.54,2.64,30-1,33.75-15.9a52.78,52.78,0,0,0,1.15-13C398.79,321.94,398.77,320.26,398.73,318.58Z" transform="translate(-27.74 -38.82)"/><path class="cls-15" d="M338.84,279.55c.18,3.56.43,7.12.73,10.67.2,2.38.41,4.75.73,7.12.7,3.79,1.56,7.55,2.39,11.32.36,1.43.73,2.86,1.08,4.29.45,1.8.82,3.64,1.26,5.45a6.59,6.59,0,0,0,.79,1.09,3.78,3.78,0,0,0,.49.49,7.11,7.11,0,0,0,2.28,1.11,29.22,29.22,0,0,0,2.79.89,43.54,43.54,0,0,0,7.62,1.14c2.71.22,5.42.32,8.13.35,1.39,0,2.77,0,4.16,0,4-.07,7.93-.28,11.86-.53.8-.05,11.13-1.23,14.63-1.66l.9-.11h.09l.17,0c.26-3.74.79-8.05,1.48-12.64.54-3.6,1.18-7.38,1.87-11.21l.54-3v0c1.29-7,2.68-14.15,3.85-20.56.41-2.27.8-4.46,1.14-6.52.05-.34.11-.68.16-1l0-.16c1.21-7.39,4-16.79,2.44-24.24-1.08-5.28-6.29-8.37-10.92-10.5l-.13-.06c-.51-.24-1-.47-1.51-.68a32.54,32.54,0,0,0-10-2.35c-.7-.06-1.39-.1-2.09-.14h-.13c-1.55-.07-3.1-.08-4.62-.06h0l-1.66,0c-5.55.16-11.08.8-16.62,1.21l-2.65.18-2,.09-.48,0h-.2l-.58,0-1,0a37.88,37.88,0,0,0-4.62.4,45.91,45.91,0,0,0-4.94,2.4,9.28,9.28,0,0,0-2.78,2.4,13.56,13.56,0,0,0-1.87,3.91,48.58,48.58,0,0,0-1.78,9.17c-.41,3.35-.81,6.69-1,10.07A191.22,191.22,0,0,0,338.84,279.55Z" transform="translate(-27.74 -38.82)"/><path class="cls-5" d="M365.07,223.17a55.6,55.6,0,0,1-3.59,7.46l2.3,1.42c.63.38,1.26.77,1.92,1.09a11.34,11.34,0,0,0,7.83.78,12.1,12.1,0,0,0,6.55-4.74,11,11,0,0,1-2.66-6Z" transform="translate(-27.74 -38.82)"/><path class="cls-18" d="M373.6,194.55a6.06,6.06,0,0,0-4.46,6.89c.45,2.94,2.59,5.51,5,7.59,1.22-3.58,2.08-6.73,3.29-10.31.46-1.34.77-3.1-.53-4A5.63,5.63,0,0,0,373.6,194.55Z" transform="translate(-27.74 -38.82)"/><path class="cls-5" d="M358.62,211.3c0,.11,0,.22,0,.34s0,.11,0,.17,0,.07,0,.11,0,.21,0,.32v.1c0,.15.05.31.08.46s.07.33.11.5a1.36,1.36,0,0,0,0,.17l0,.1a3.17,3.17,0,0,0,.12.41,9.94,9.94,0,0,0,.35,1c0,.08.07.15.1.23a10.65,10.65,0,0,0,1.12,1.9l.29.37.17.2c.09.1.18.21.28.31a8.5,8.5,0,0,0,.74.73l.37.31a10.62,10.62,0,0,0,1.64,1.09,9.48,9.48,0,0,0,1.38.61l.31.11.23.07.12,0,.12,0,.36.09a10.16,10.16,0,0,0,2.28.28h.52a10.47,10.47,0,0,0,10-10.34l0-2.47.07-7.26,0-2.27,0-3.14c0-.17,0-.34,0-.51s0-.17,0-.25a1.27,1.27,0,0,0,0-.2c0-.07,0-.14,0-.2a.09.09,0,0,0,0,0,.49.49,0,0,0,0-.12c0-.05,0-.1,0-.15s0-.06,0-.09l0-.21,0-.18a.43.43,0,0,1,0-.11l-.09-.41-.06-.23-.06-.21-.06-.21h0c0-.06,0-.13-.07-.2a1.72,1.72,0,0,0-.07-.21c0-.06,0-.13-.07-.2s-.11-.27-.17-.41l0-.08-.15-.33,0-.07c-.05-.11-.11-.23-.17-.34l0-.05a10.43,10.43,0,0,0-18.88,1.08,10.29,10.29,0,0,0-.74,3.77l-.14,15.13C358.61,211,358.61,211.12,358.62,211.3Z" transform="translate(-27.74 -38.82)"/><path class="cls-5" d="M385.29,204.91a4,4,0,1,1-4-4A4,4,0,0,1,385.29,204.91Z" transform="translate(-27.74 -38.82)"/><path class="cls-15" d="M410.05,240c3.56,6.58,5.05,14.34,6.94,21.58,2.38,9.13,4.29,18.68,2.64,28s-2.87,11.45-11.86,14.35c-8.71,2.8-24.67-.56-33.09-4.14-4.68-2-8.07,2.12-8.91-2.89s-2.55-1.84,2.4-3.16,17.32-4.41,24.18-5.76a95.06,95.06,0,0,1,10.36-1.36c2.36.22-1.19-16.49-1.67-18.15-2.2-7.59-5.29-15.52-3.8-23.55.61-3.28,1.86-5.48,4.89-7S408.35,236.84,410.05,240Z" transform="translate(-27.74 -38.82)"/><path class="cls-15" d="M357,295.23c4.86-1.62,24.78-6.38,31-9.59,5.56-2.87,12.41-5.93,12.41-5.93,1.36.13.76-5.36-.09-10.36l.38,0c5.73-.25,13.73,7.23,19.33,8.39a45.35,45.35,0,0,1-.42,11.81c-1.65,9.3-2.87,11.45-11.86,14.35-8.71,2.8-19.93,1.84-29,1.41-8.14-.38-20.31-2.5-20.31-2.5C357.59,297.74,356.84,295.29,357,295.23Z" transform="translate(-27.74 -38.82)"/><path class="cls-16" d="M332,420l-1.83-80.67A9.9,9.9,0,0,1,340,329.22l48.18-.33.13,19.81-38.11.26,1.6,70.61Z" transform="translate(-27.74 -38.82)"/><path class="cls-16" d="M305,419.33l-19.75-1.63,6.16-74.79a9.9,9.9,0,0,1,9.52-9.08L380.11,331l.71,19.8-70.43,2.51Z" transform="translate(-27.74 -38.82)"/><line class="cls-19" x1="370.88" y1="235.06" x2="366.31" y2="217.14"/><path class="cls-15" d="M281.41,187.1h0a3.49,3.49,0,0,1,.19-4.91L286,178.1a3.47,3.47,0,0,1,4.9.19h0a3.48,3.48,0,0,1-.18,4.91l-4.42,4.09A3.49,3.49,0,0,1,281.41,187.1Z" transform="translate(-27.74 -38.82)"/><path class="cls-15" d="M361.39,306h0a3.5,3.5,0,0,1-3.48-3.48v-6a3.49,3.49,0,0,1,3.48-3.47h0a3.48,3.48,0,0,1,3.47,3.47v6A3.49,3.49,0,0,1,361.39,306Z" transform="translate(-27.74 -38.82)"/><path class="cls-15" d="M387,243.59c-.51-5,.37-11.21,5-13.2a8.68,8.68,0,0,1,5.24-.34c5.67,1.26,10.54,5.75,13.64,10.66,8.76,13.9,14.46,30.72,12.47,47a21.26,21.26,0,0,1-3.13,9.54c-7.72,11.24-20,.68-22-8.76C395.24,273.48,388.56,258.87,387,243.59Z" transform="translate(-27.74 -38.82)"/><path class="cls-20" d="M372.72,294.47c7.9-7.29,28.92-15.8,37.1-17.68" transform="translate(-27.74 -38.82)"/><path class="cls-20" d="M400.67,279.33a2.81,2.81,0,0,0-.08-.95q-1-4.92-2-9.85" transform="translate(-27.74 -38.82)"/><rect class="cls-8" x="328.22" y="263.58" width="75.86" height="7.34" rx="3.23"/><path class="cls-13" d="M423.14,348.71v-14l1.15-59.23a11.93,11.93,0,0,1,11.93-11.7h6" transform="translate(-27.74 -38.82)"/><path class="cls-12" d="M351.67,438.22l.7-85.44A12.74,12.74,0,0,1,365.11,340h57.43" transform="translate(-27.74 -38.82)"/><path class="cls-21" d="M356.77,429.47a13.24,13.24,0,1,1-13.24,13.24,13.23,13.23,0,0,1,13.24-13.24m0-3.18a16.42,16.42,0,1,0,16.42,16.42,16.43,16.43,0,0,0-16.42-16.42Z" transform="translate(-27.74 -38.82)"/><circle class="cls-7" cx="329.03" cy="403.89" r="11.47"/><path class="cls-8" d="M356.77,433a9.72,9.72,0,1,1-9.72,9.72,9.73,9.73,0,0,1,9.72-9.72m0-3.52A13.24,13.24,0,1,0,370,442.71a13.24,13.24,0,0,0-13.23-13.24Z" transform="translate(-27.74 -38.82)"/><path class="cls-7" d="M361.23,442.93a4.59,4.59,0,1,1-4.59-4.58A4.58,4.58,0,0,1,361.23,442.93Z" transform="translate(-27.74 -38.82)"/><path class="cls-8" d="M356.77,433a9.72,9.72,0,1,1-9.72,9.72,9.73,9.73,0,0,1,9.72-9.72m0-3.52A13.24,13.24,0,1,0,370,442.71a13.24,13.24,0,0,0-13.23-13.24Z" transform="translate(-27.74 -38.82)"/><path class="cls-8" d="M361.23,442.93a4.59,4.59,0,1,1-4.59-4.58A4.58,4.58,0,0,1,361.23,442.93Z" transform="translate(-27.74 -38.82)"/><path class="cls-9" d="M423.89,347.64a52.2,52.2,0,1,1-52.19,52.2,52.2,52.2,0,0,1,52.19-52.2m0-6.08a58.28,58.28,0,1,0,58.28,58.28,58.35,58.35,0,0,0-58.28-58.28Z" transform="translate(-27.74 -38.82)"/><rect class="cls-10" x="373.73" y="396.88" width="102.37" height="6.61" rx="2.7" transform="translate(-186.26 378.85) rotate(-45)"/><circle class="cls-22" cx="423.89" cy="399.84" r="52.2" transform="translate(-186.31 378.03) rotate(-45)"/><rect class="cls-10" x="394.47" y="310.43" width="6.73" height="100.38" rx="2.7"/><rect class="cls-10" x="420.28" y="347.31" width="7.72" height="103.26" rx="2.93" transform="translate(795.34 -64.01) rotate(90)"/><rect class="cls-10" x="420.76" y="345.57" width="6.65" height="104.66" rx="2.74" transform="translate(977.58 340.53) rotate(135)"/><path class="cls-23" d="M283.15,168.62a14.81,14.81,0,0,0-5.88,2.52,3.28,3.28,0,0,0-1,1.08,1.3,1.3,0,0,0,.1,1.43c.57.62,1.58.27,2.33-.11l2-1a6.92,6.92,0,0,0,3.2,5.15" transform="translate(-27.74 -38.82)"/><path class="cls-16" d="M379.52,201.06c-.5.47-1.32.18-1.88-.22a7,7,0,0,1-2.26-8.2c-15.37,4.61-34.43-.49-45-12.6-3.76-4.32-6.68-9.58-7.26-15.28s1.44-11.84,6-15.32,11.69-3.56,15.75.48a15.21,15.21,0,0,1,3.23,5.16,27.86,27.86,0,0,1,.37,19.82c2-2.6,6-2.78,8.7-.92a8.82,8.82,0,0,1,3.31,8.72c.78-1.59,2.71-2,4.4-2.58a8.6,8.6,0,0,1,6,0,4.54,4.54,0,0,1,2.76,4.91c2.09-2.05,6.32-1.26,7.79,1.27,1,1.7.85,3.81.6,5.75C381.59,195.48,380.48,197.77,379.52,201.06Z" transform="translate(-27.74 -38.82)"/><path class="cls-17" d="M363.28,209.66v.13a3.91,3.91,0,1,0,7.82,0v-.13Z" transform="translate(-27.74 -38.82)"/><path class="cls-5" d="M371.94,297.16a20.3,20.3,0,0,0-5.73-5.87,8.68,8.68,0,0,0-7.89-.89c-2.52,1.12-4.19,4.21-3.19,6.77a2.69,2.69,0,0,0-3.25,2.4,3.84,3.84,0,0,0,2.41,3.62h19.85A24.17,24.17,0,0,0,371.94,297.16Z" transform="translate(-27.74 -38.82)"/><path class="cls-24" d="M270.33,114.1c5.24-7.16,9.81-15,12.06-23.52,1.26-4.78,1.76-9.9.36-14.57s-4.95-8.84-9.68-10c-8.35-2-16.26,5.85-19.61,13.94-2.54,6.14-3.44,12.87-6.16,18.92a69.05,69.05,0,0,1-10.41,16.14c-8.47,10-18.39,16.41-30.57,21.11-7.79,3-33.62,5.69-35.68,15-2.88,13,27.15,12.26,32.79,10.5A132.44,132.44,0,0,0,270.33,114.1Z" transform="translate(-27.74 -38.82)"/><path class="cls-25" d="M284.55,55.4c-1.29-1-5.42,4.9-5.42,4.9s4.89-8.08,4.06-9c-1.32-1.51-6.73,7.77-6.73,7.77s5.63-10.25,3.59-11-6.46,10-6.46,10,3.53-10.39,1.67-10.77-5.91,13.2-5.91,13.2-2.78-6.61-4.16-6.13c-2.33.81,3,15.09,3,15.09l7.56,3.56S285.84,56.43,284.55,55.4Z" transform="translate(-27.74 -38.82)"/><rect class="cls-24" x="265.12" y="68.11" width="14.1" height="5.64" rx="1.88" transform="translate(493.33 163.09) rotate(-166.85)"/><path class="cls-8" d="M215.92,432.21c-3.57-1-7.39-1.24-10.67-3a13.37,13.37,0,0,1-6.3-7.51h-13.8v23.8h47A26.51,26.51,0,0,0,215.92,432.21Z" transform="translate(-27.74 -38.82)"/><path class="cls-14" d="M215.92,432.21c-3.57-1-7.39-1.24-10.67-3a13.3,13.3,0,0,1-6.1-7c-.94,1.34-1.84,2.69-2.85,4a13.37,13.37,0,0,1-3.41,3.3,6.33,6.33,0,0,1-4.49.87,9,9,0,0,1-3.25-1.35v16.45h47A26.51,26.51,0,0,0,215.92,432.21Z" transform="translate(-27.74 -38.82)"/><path class="cls-8" d="M231.14,448H185.33a2.38,2.38,0,0,1-2.37-2.37h0a2.38,2.38,0,0,1,2.37-2.37h45.81a2.37,2.37,0,0,1,2.37,2.37h0A2.38,2.38,0,0,1,231.14,448Z" transform="translate(-27.74 -38.82)"/><path class="cls-8" d="M197.11,431.4h0a1.27,1.27,0,0,1,0-1.79l7.15-7.15a1.27,1.27,0,0,1,1.79,0h0a1.27,1.27,0,0,1,0,1.79l-7.15,7.15A1.27,1.27,0,0,1,197.11,431.4Z" transform="translate(-27.74 -38.82)"/><path class="cls-8" d="M201.75,434.66h0a1.26,1.26,0,0,1,0-1.78l7.15-7.15a1.27,1.27,0,0,1,1.79,0h0a1.26,1.26,0,0,1,0,1.78l-7.15,7.15A1.26,1.26,0,0,1,201.75,434.66Z" transform="translate(-27.74 -38.82)"/><path class="cls-8" d="M143,416.49a13.49,13.49,0,0,1-6.89,13.7c-3.27,1.72-7.09,2-10.66,3a26.55,26.55,0,0,0-16.29,13.33h47.06v-30.4Z" transform="translate(-27.74 -38.82)"/><path class="cls-14" d="M125.45,433.15c3.57-1,7.39-1.24,10.66-3a13.27,13.27,0,0,0,6.11-7c.94,1.34,1.84,2.69,2.84,4a13.54,13.54,0,0,0,3.41,3.3,6.36,6.36,0,0,0,4.5.87,9.09,9.09,0,0,0,3.25-1.35v16.45H109.16A26.55,26.55,0,0,1,125.45,433.15Z" transform="translate(-27.74 -38.82)"/><path class="cls-8" d="M110.22,449H156a2.38,2.38,0,0,0,2.37-2.37h0a2.38,2.38,0,0,0-2.37-2.37H110.22a2.37,2.37,0,0,0-2.36,2.37h0A2.37,2.37,0,0,0,110.22,449Z" transform="translate(-27.74 -38.82)"/><path class="cls-8" d="M144.25,432.34h0a1.27,1.27,0,0,0,0-1.79l-7.15-7.15a1.26,1.26,0,0,0-1.78,0h0a1.27,1.27,0,0,0,0,1.79l7.15,7.15A1.26,1.26,0,0,0,144.25,432.34Z" transform="translate(-27.74 -38.82)"/><path class="cls-8" d="M139.62,435.6h0a1.26,1.26,0,0,0,0-1.78l-7.15-7.15a1.27,1.27,0,0,0-1.79,0h0a1.26,1.26,0,0,0,0,1.78l7.15,7.15A1.26,1.26,0,0,0,139.62,435.6Z" transform="translate(-27.74 -38.82)"/><path class="cls-25" d="M167.85,105.3a54.49,54.49,0,0,1,.93,8.64c.13,4.34-.43,9.07-3.46,12.18a14.47,14.47,0,0,0,7.81,5.49,14,14,0,0,0,9.34-.9c.79-.38,1.54-.82,2.29-1.27l2.75-1.64c-4-6.85-7.38-14.43-6.31-22.28-2-.37-4.8-1.2-6.78-1.57a11.47,11.47,0,0,0-2.61-.29C170.42,103.72,169.22,105.53,167.85,105.3Z" transform="translate(-27.74 -38.82)"/><path class="cls-26" d="M183.23,119.17a63,63,0,0,0,4.28,8.63l-2.75,1.64c-.75.45-1.5.89-2.29,1.27a14,14,0,0,1-9.34.9,14.47,14.47,0,0,1-7.81-5.49,12.63,12.63,0,0,0,3.17-7Z" transform="translate(-27.74 -38.82)"/><rect class="cls-14" x="131.66" y="192.65" width="90.73" height="61.77" rx="22.94" transform="translate(-83.83 348.92) rotate(-86.78)"/><path class="cls-14" d="M157.08,420.54c3-18.93,18.37-163,18.33-182.22l-31.28-4.55c-1.13,19.48-2,165.07-2.09,186.45Z" transform="translate(-27.74 -38.82)"/><path class="cls-14" d="M200.81,422.46c1.52-22.37,7.76-171.25,8-191.67l-31.53,2.37c-1.49,20.8,4.22,168.58,6.39,189.3Z" transform="translate(-27.74 -38.82)"/><path class="cls-26" d="M218.83,171.24c0,.66-.08,1.32-.13,2q-.24,3-.59,6.09c-.86,7.57-2.18,15.07-3.25,22.36,0,.23-.07.46-.11.7s0,.23-.05.34c-.88,5.37-2.54,12.41-4,18.9-.74,3.32-1.42,6.5-1.91,9.24h0q-.09.52-.18,1s-.43.21-1.17.53a42.82,42.82,0,0,1-10.8,3.18,140.12,140.12,0,0,1-19.56.88c-4.73-.08-9.46-.33-14.14-.61-1-.06-13.28-1.43-17.45-1.91l-1.08-.13h-.11a.88.88,0,0,1-.19,0c-.31-4.34-.94-9.31-1.77-14.63-.64-4.16-1.41-8.53-2.23-13-1.71-9.27-3.65-18.82-5.25-27.32-.49-2.63-.95-5.15-1.35-7.54-.07-.39-.14-.78-.2-1.17-1.43-8.57-4.76-19.55-2.94-28.22,1.28-6.11,7.5-9.68,13-12.15l.15-.07,1.81-.79a39.58,39.58,0,0,1,11.94-2.71c.88-.07,1.76-.13,2.65-.17,1.84-.09,3.69-.1,5.51-.08h0l2,.05c6.63.19,13.22.92,19.83,1.4l3.16.2,2.39.12.58,0h.24l.69,0,1.18,0c4.47.17,8.12.48,11.44,2.62l.3.2.13.09a16,16,0,0,1,1.91,1.58l.1.11c.36.36.71.74,1.06,1.15a21,21,0,0,1,1.61,2.12c4.32,6.35,6,14.1,6.65,21.64A93.57,93.57,0,0,1,218.83,171.24Z" transform="translate(-27.74 -38.82)"/><path class="cls-24" d="M170.76,219.19c-1-5.5-2.38-10.83-1.89-16.47.44-4.9,1.92-9.61,2.93-14.41a65.22,65.22,0,0,0,1.52-17.78,54.57,54.57,0,0,0-3.89-16.7A94.39,94.39,0,0,0,161.28,139c-2.51-4-5.38-8-6.68-12.5a36.44,36.44,0,0,0-9.23,2.4l-1.81.79-.15.07c-5.52,2.47-11.74,6-13,12.15-1.82,8.67,1.51,19.65,2.94,28.22.06.39.13.78.2,1.17.4,2.39.86,4.91,1.35,7.54,1.6,8.5,3.54,18,5.25,27.32.82,4.43,1.59,8.8,2.23,13,.83,5.32,1.46,10.29,1.76,14.63l.2,0h.11l1.08.13c4.17.48,16.5,1.85,17.45,1.91,3.36.2,6.75.38,10.14.5A157.74,157.74,0,0,0,170.76,219.19Z" transform="translate(-27.74 -38.82)"/><path class="cls-24" d="M218.72,157.33c-.67-7.54-2.33-15.29-6.65-21.64a21,21,0,0,0-1.61-2.12c-.35-.41-.7-.79-1.06-1.15l-.1-.11a16,16,0,0,0-1.91-1.58l-.13-.09-.3-.2c-2.68-1.73-5.57-2.26-8.93-2.49a56,56,0,0,1,6.09,25.92,32.84,32.84,0,0,1-3.47,14.51c-2.34,4.52-5.45,8.6-7.56,13.26-2.59,5.72-2.4,11.48-1.4,17.54A86.29,86.29,0,0,1,193,214.74a135.41,135.41,0,0,1-1.8,21.39c1.84-.14,3.68-.31,5.51-.54a42.82,42.82,0,0,0,10.8-3.18c.74-.32,1.17-.53,1.17-.53q.09-.49.18-1h0c.49-2.74,1.17-5.92,1.91-9.24,1.44-6.49,3.1-13.53,4-18.9,0-.11,0-.23.05-.34s.07-.47.11-.7c1.07-7.29,2.39-14.79,3.25-22.36q.34-3,.59-6.09c.05-.66.09-1.32.13-2A93.57,93.57,0,0,0,218.72,157.33Z" transform="translate(-27.74 -38.82)"/><path class="cls-14" d="M171.18,269.28a29.12,29.12,0,0,0,14.7-5.92Z" transform="translate(-27.74 -38.82)"/><path class="cls-16" d="M168,78.15c3.59,1.45,5,5.65,3.84,9s-4.17,5.94-7.44,7.9c-.7-4.46-1.07-8.34-1.76-12.79-.27-1.67-.28-3.8,1.43-4.55C165,77.31,167,77.76,168,78.15Z" transform="translate(-27.74 -38.82)"/><path class="cls-27" d="M184.74,264.77A28.6,28.6,0,0,1,167.26,267c-.79-.14-1.13,1.06-.34,1.21a30.14,30.14,0,0,0,18.45-2.39c.73-.34.1-1.42-.63-1.08Z" transform="translate(-27.74 -38.82)"/><path class="cls-25" d="M187.43,101.21v.4c0,.07,0,.14,0,.21a.57.57,0,0,1,0,.13l0,.39v.11c0,.19,0,.38-.07.57s-.06.39-.1.59a1.18,1.18,0,0,0,0,.2l0,.13c0,.16-.08.33-.13.49a12,12,0,0,1-.37,1.16c0,.1-.08.19-.11.28a12.56,12.56,0,0,1-1.25,2.31,4.84,4.84,0,0,1-.33.46l-.18.25c-.11.13-.21.26-.32.38a10.38,10.38,0,0,1-.85.9,5.22,5.22,0,0,1-.43.39,12.81,12.81,0,0,1-3.51,2.18l-.37.14L179,113l-.14,0-.14,0-.43.13a12.07,12.07,0,0,1-2.71.43l-.61,0a12.49,12.49,0,0,1-12.44-11.85l-.14-2.94L162,90.21l-.14-2.7-.18-3.74c0-.2,0-.41,0-.61v-.3a1.93,1.93,0,0,1,0-.24c0-.08,0-.16,0-.24a.13.13,0,0,1,0-.06.61.61,0,0,1,0-.14c0-.06,0-.12,0-.18s0-.07,0-.1l0-.26,0-.22a.5.5,0,0,1,0-.12c0-.17.05-.34.08-.5l.06-.28.06-.26.06-.24h0l.06-.25c0-.08,0-.17.08-.25s.05-.16.08-.25.11-.33.17-.49a.36.36,0,0,0,0-.09c0-.14.11-.27.17-.4l0-.1.18-.4,0-.06a12.44,12.44,0,0,1,22.56.38,12.26,12.26,0,0,1,1.06,4.45l.89,18C187.43,100.79,187.43,101,187.43,101.21Z" transform="translate(-27.74 -38.82)"/><path class="cls-25" d="M155.34,94.87a4.8,4.8,0,1,0,4.56-5A4.8,4.8,0,0,0,155.34,94.87Z" transform="translate(-27.74 -38.82)"/><path class="cls-16" d="M187.43,101.21v.4c0,.07,0,.14,0,.21a.57.57,0,0,1,0,.13l0,.39v.11c0,.19,0,.38-.07.57s-.06.39-.1.59a1.18,1.18,0,0,0,0,.2l0,.13c0,.16-.08.33-.13.49a12,12,0,0,1-.37,1.16c0,.1-.08.19-.11.28a12.56,12.56,0,0,1-1.25,2.31,4.84,4.84,0,0,1-.33.46l-.18.25c-.11.13-.21.26-.32.38a10.38,10.38,0,0,1-.85.9,5.22,5.22,0,0,1-.43.39,12.81,12.81,0,0,1-3.51,2.18l-.37.14L179,113l-.14,0-.14,0-.43.13a12.07,12.07,0,0,1-2.71.43l-.61,0a12.49,12.49,0,0,1-12.44-11.85l-.14-2.94L162,90.21l-.14-2.7-.18-3.74c0-.2,0-.41,0-.61v-.3a1.93,1.93,0,0,1,0-.24c0-.08,0-.16,0-.24a.13.13,0,0,1,0-.06.61.61,0,0,1,0-.14c0-.06,0-.12,0-.18s0-.07,0-.1l0-.26,0-.22a.5.5,0,0,1,0-.12c0-.17.05-.34.08-.5l.06-.28.06-.26.06-.24h0l.06-.25c0-.08,0-.17.08-.25s.05-.16.08-.25a12.37,12.37,0,0,1,2.07-3.81l.22,4.65.46,9.3a1.7,1.7,0,0,0,.1.47,8.44,8.44,0,0,1,4.54,2.93,12.85,12.85,0,0,1,2.37,5,1.32,1.32,0,0,0,.48-.36c1.95-2.23,5.51-2.43,8.22-1.9,2.91.57,5.9,2.18,6.52,5.3A1.1,1.1,0,0,0,187.43,101.21Z" transform="translate(-27.74 -38.82)"/><path class="cls-17" d="M173.25,101a5,5,0,0,0,9.93-.4Z" transform="translate(-27.74 -38.82)"/><path class="cls-16" d="M185.47,78.1a14.1,14.1,0,0,1-7.07,2.54c-4.26.36-8.52-.63-12.79-.65a3.61,3.61,0,0,0-1,.11,1.52,1.52,0,0,0-.48.23L162.87,90.7l-.23,2c-.06-.76-.15-1.51-.27-2.27-.14-1-.33-1.93-.53-2.89l-.18-3.74c0-.2,0-.41,0-.61v-.3a1.93,1.93,0,0,1,0-.24c0-.08,0-.16,0-.24a.13.13,0,0,1,0-.06.61.61,0,0,1,0-.14c0-.06,0-.12,0-.18s0-.07,0-.1l0-.26,0-.22a.5.5,0,0,1,0-.12c0-.17.05-.34.08-.5l.06-.28.06-.26.06-.24h0l.06-.25c0-.08,0-.17.08-.25s.05-.16.08-.25.11-.33.17-.49a.36.36,0,0,0,0-.09c0-.14.11-.27.17-.4l0-.1.18-.4,0-.06a12.44,12.44,0,0,1,22.56.38Z" transform="translate(-27.74 -38.82)"/><polygon class="cls-14" points="175.79 296.31 175.8 296.21 154.18 296.21 154.18 296.31 175.79 296.31"/><polygon class="cls-14" points="155.34 382.92 155.35 383.6 161.58 382.92 155.34 382.92"/><path class="cls-24" d="M99.81,224.4c.21,8.87,1.36,17.85,4.79,26,1.92,4.56,4.64,8.92,8.59,11.77s9.32,4,13.75,2c7.81-3.53,9.31-14.55,7-23-1.73-6.41-5.11-12.29-6.65-18.74a68.85,68.85,0,0,1-1.58-19.15c.61-13.08,4.56-24.21,11.34-35.36,4.35-7.15,12.68-22.32,8.62-31-5.66-12.08-18.49,4.15-21.88,9A132.42,132.42,0,0,0,99.81,224.4Z" transform="translate(-27.74 -38.82)"/><path class="cls-25" d="M124.34,279.6c1.65,0,1.3-7.19,1.3-7.19s1,9.39,2.3,9.63c2,.39.59-10.26.59-10.26s1.79,11.56,3.89,11-1-11.84-1-11.84,3.54,10.39,5.25,9.56-3.37-14.07-3.37-14.07,6.23,3.54,7,2.32c1.36-2.06-11.57-10.14-11.57-10.14l-8.16,1.79S122.69,279.57,124.34,279.6Z" transform="translate(-27.74 -38.82)"/><rect class="cls-24" x="117.63" y="256.92" width="14.1" height="5.64" rx="1.88" transform="translate(-123.99 35.99) rotate(-24.43)"/><path class="cls-16" d="M162.23,81.86c-1.12-3,.57-6.43,3.15-8.29s5.83-2.47,9-2.93,6.39-.83,9.2-2.32c9.16-4.87,9.13-18.37,16.22-25.94,1.88-2,4.41-3.59,7.15-3.56a9,9,0,0,1,5.54,2.24c5.1,4.27,5.78,12,4.06,18.45C213.71,70,205,79,194.39,81.2c-4.86,1-10.51.45-13.83-3.24a19.45,19.45,0,0,1-12.13.67" transform="translate(-27.74 -38.82)"/><path class="cls-25" d="M430.75,139.9c.83-1.43,6.83,2.61,6.83,2.61s-7.49-5.76-7.06-6.95c.68-1.88,9.09,4.8,9.09,4.8s-9-7.51-7.36-9,9.65,6.95,9.65,6.95-7.07-8.4-5.48-9.43S446.72,139,446.72,139s.19-7.16,1.65-7.22c2.47-.09,2.69,17.73,2.69,17.73L445.32,153S429.92,141.33,430.75,139.9Z" transform="translate(-27.74 -38.82)"/><circle class="cls-2" cx="594.35" cy="259.09" r="24.29"/><circle class="cls-2" cx="642.93" cy="226.7" r="4.86"/><circle class="cls-2" cx="570.06" cy="199.17" r="6.48"/><circle class="cls-2" cx="387.08" cy="145.74" r="17.81"/><path class="cls-3" d="M622.6,295.1c6.79-6.11,25-16.54,34.35-12.08-5.43,7.36-26.35,18.75-35.85,13.24C621.73,295.35,622.25,295.71,622.6,295.1Z" transform="translate(-27.74 -38.82)"/><path class="cls-3" d="M627,275.05c1.6-7.39,8.81-23.22,17.2-24.72-.08,7.56-8.61,25.33-17.64,26.22C626.56,275.64,627.08,275.63,627,275.05Z" transform="translate(-27.74 -38.82)"/><path class="cls-3" d="M626.37,274.59c-.43-7.54-5.09-24.3-13.15-27.09-1.09,7.48,4.56,26.36,13.35,28.65C626.73,275.25,626.22,275.16,626.37,274.59Z" transform="translate(-27.74 -38.82)"/><path class="cls-3" d="M627.81,258c-3.54-6.68-8.22-23.43-2.77-30,4.81,5.83,9.73,24.91,3.4,31.42C627.83,258.76,628.23,258.42,627.81,258Z" transform="translate(-27.74 -38.82)"/><path class="cls-3" d="M620.48,293.57c-1.7-9-9.89-28.34-20-30.43-.15,9.14,9.58,30.89,20.47,32.27C621,294.31,620.38,294.27,620.48,293.57Z" transform="translate(-27.74 -38.82)"/><path class="cls-3" d="M615.24,315.27c6.79-6.12,25-16.55,34.34-12.08-5.42,7.36-26.34,18.75-35.84,13.24C614.36,315.52,614.89,315.88,615.24,315.27Z" transform="translate(-27.74 -38.82)"/><path class="cls-3" d="M614.84,313.92c-1.69-9-9.89-28.34-20-30.43-.14,9.14,9.58,30.89,20.47,32.27C615.38,314.66,614.75,314.62,614.84,313.92Z" transform="translate(-27.74 -38.82)"/><path class="cls-3" d="M606.7,333.84c6.79-6.12,25-16.55,34.35-12.09-5.43,7.36-26.35,18.76-35.85,13.25C605.83,334.09,606.35,334.45,606.7,333.84Z" transform="translate(-27.74 -38.82)"/><path class="cls-3" d="M606.62,335.87c-1.69-9-9.89-28.34-20-30.43-.15,9.14,9.58,30.89,20.47,32.27C607.17,336.61,606.53,336.57,606.62,335.87Z" transform="translate(-27.74 -38.82)"/><path class="cls-3" d="M595.21,353.7c6.79-6.11,25-16.54,34.34-12.08-5.42,7.36-26.34,18.76-35.84,13.25C594.33,354,594.86,354.31,595.21,353.7Z" transform="translate(-27.74 -38.82)"/><path class="cls-3" d="M593.08,352.18c-1.69-9-9.89-28.35-20-30.43-.15,9.14,9.58,30.89,20.47,32.26C593.63,352.91,593,352.88,593.08,352.18Z" transform="translate(-27.74 -38.82)"/><path class="cls-3" d="M576.89,381c6.78-6.11,25.05-16.54,34.34-12.08-5.42,7.36-26.35,18.75-35.84,13.24C576,381.29,576.54,381.65,576.89,381Z" transform="translate(-27.74 -38.82)"/><path class="cls-3" d="M574.76,379.51c-1.69-9-9.89-28.34-20-30.43-.14,9.14,9.58,30.89,20.47,32.27C575.3,380.25,574.67,380.21,574.76,379.51Z" transform="translate(-27.74 -38.82)"/><path class="cls-3" d="M562.73,394.7c32.39-36.58,48.34-69.46,56.14-92.11C629,273.09,628,254.09,628,253.9a.72.72,0,0,1,.67-.77.73.73,0,0,1,.77.68c0,.19,1.08,19.41-9.15,49.16-7.89,22.95-24.07,56.31-57.08,93.38Z" transform="translate(-27.74 -38.82)"/><path class="cls-3" d="M678,343.43c10.34-4,35.59-8,44.22,1.07-9.33,6-38,10-46.43-.39C676.93,343.34,677.38,344,678,343.43Z" transform="translate(-27.74 -38.82)"/><path class="cls-3" d="M691.69,322.55c5-7.7,20-22.57,30.19-20.66-3.35,8.55-20.69,25.06-31.34,22.18C690.91,323,691.51,323.24,691.69,322.55Z" transform="translate(-27.74 -38.82)"/><path class="cls-3" d="M691.15,321.75c2.76-8.75,4.69-29.8-3.26-36.44-4.47,8-6.18,31.91,2.82,38.3C691.28,322.66,690.73,322.33,691.15,321.75Z" transform="translate(-27.74 -38.82)"/><path class="cls-3" d="M699.93,303.54c-1.14-9.11.75-30.16,9.77-35.26,2.95,8.7.32,32.5-9.67,37.16C699.63,304.41,700.23,304.18,699.93,303.54Z" transform="translate(-27.74 -38.82)"/><path class="cls-3" d="M676.28,340.78c2-10.93,1-36.46-9.6-43.18-4.1,10.32-2.42,39.22,9.36,45.47C676.58,341.85,675.87,341.53,676.28,340.78Z" transform="translate(-27.74 -38.82)"/><path class="cls-3" d="M661,363.17c10.34-4,35.58-8,44.22,1.07-9.34,6-38,10-46.43-.39C659.88,363.08,660.32,363.71,661,363.17Z" transform="translate(-27.74 -38.82)"/><path class="cls-3" d="M661.11,361.47c1.95-10.93,1-36.46-9.6-43.18-4.1,10.32-2.42,39.22,9.36,45.47C661.41,362.54,660.7,362.22,661.11,361.47Z" transform="translate(-27.74 -38.82)"/><path class="cls-3" d="M643.29,380.59c10.34-4,35.59-8,44.22,1.07-9.33,6-38,9.95-46.42-.4C642.19,380.5,642.63,381.13,643.29,380.59Z" transform="translate(-27.74 -38.82)"/><path class="cls-3" d="M642.32,382.87c1.95-10.93,1-36.47-9.59-43.19-4.11,10.33-2.43,39.22,9.35,45.48C642.62,383.93,641.92,383.62,642.32,382.87Z" transform="translate(-27.74 -38.82)"/><path class="cls-3" d="M621.67,398.2c10.35-4,35.59-8,44.22,1.07-9.33,6-38,10-46.42-.39C620.57,398.11,621,398.75,621.67,398.2Z" transform="translate(-27.74 -38.82)"/><path class="cls-3" d="M619.91,395.55c2-10.92,1-36.46-9.59-43.18-4.1,10.32-2.42,39.22,9.36,45.48C620.22,396.62,619.51,396.31,619.91,395.55Z" transform="translate(-27.74 -38.82)"/><path class="cls-3" d="M589.08,421.37c10.35-4,35.59-8,44.22,1.07-9.33,6-38,9.95-46.42-.4C588,421.28,588.42,421.91,589.08,421.37Z" transform="translate(-27.74 -38.82)"/><path class="cls-3" d="M587.32,418.72c1.95-10.93,1-36.47-9.59-43.18-4.11,10.32-2.42,39.22,9.35,45.47C587.63,419.78,586.92,419.47,587.32,418.72Z" transform="translate(-27.74 -38.82)"/><path class="cls-3" d="M567.12,430.78c52.56-27.6,84.83-58.07,103.45-80.45,24.26-29.13,31.25-51.17,31.32-51.39a.88.88,0,0,1,1.68.52c-.07.22-7.13,22.52-31.57,51.91C653.15,374,620.39,405,566.93,432.86Z" transform="translate(-27.74 -38.82)"/><path class="cls-28" d="M573.34,418.63c-1.41,5.23.46,11.16,4.44,14.06,2.69,2,6.05,2.54,9.08,3.81A23.4,23.4,0,0,1,599.67,451L558,447l3.7-29.91Z" transform="translate(-27.74 -38.82)"/><path class="cls-17" d="M586.86,436.5c-3-1.27-6.39-1.85-9.08-3.81a12.41,12.41,0,0,1-4.57-7.37c-1,1.24-2,2.5-3,3.68a13.34,13.34,0,0,1-3.42,3,5.22,5.22,0,0,1-4.09.47,7.38,7.38,0,0,1-2.72-1.6L558,447l41.69,4A23.4,23.4,0,0,0,586.86,436.5Z" transform="translate(-27.74 -38.82)"/><path class="cls-28" d="M598.43,453.35l-40.59-3.86A2.17,2.17,0,0,1,556,447h0a2.32,2.32,0,0,1,2.39-2.14L599,448.69a2.18,2.18,0,0,1,1.82,2.53h0A2.33,2.33,0,0,1,598.43,453.35Z" transform="translate(-27.74 -38.82)"/><path class="cls-28" d="M570.31,434.11h0a1.36,1.36,0,0,1,.21-1.76l7.21-6.43a1.05,1.05,0,0,1,1.58.15h0a1.35,1.35,0,0,1-.22,1.76l-7.2,6.43A1,1,0,0,1,570.31,434.11Z" transform="translate(-27.74 -38.82)"/><path class="cls-28" d="M574,437.72h0a1.38,1.38,0,0,1,.22-1.76l7.21-6.43a1,1,0,0,1,1.58.15h0a1.37,1.37,0,0,1-.22,1.76l-7.2,6.43A1.06,1.06,0,0,1,574,437.72Z" transform="translate(-27.74 -38.82)"/><path class="cls-16" d="M505.07,82.44c-2.68,1.63-5.15,3.9-6.14,6.88-1.93,5.86,2.33,11.78,6.23,16.55s7.94,11,5.56,16.67c-1.66,4-6,6.18-10.27,7s-8.65.74-12.84,1.82a23.44,23.44,0,0,0-16.42,16.29c-2.71,10.12,2,21.14,9.56,28.36s17.67,11.2,27.73,14.1A172.31,172.31,0,0,0,553,196.84c12.52.21,26-1.3,35.51-9.39a30.74,30.74,0,0,0-4.8-50.26c-4.07-2.29-8.66-3.65-12.46-6.35s-6.82-7.4-5.58-11.89a29.77,29.77,0,0,1,2.37-4.93c5.24-10.64-2.39-24-13-29.23-9.33-4.57-18.42-3.25-28.3-4.22C518.55,79.77,513,77.63,505.07,82.44Z" transform="translate(-27.74 -38.82)"/><path class="cls-29" d="M514,345.27" transform="translate(-27.74 -38.82)"/><path class="cls-30" d="M553.83,110.4" transform="translate(-27.74 -38.82)"/><path class="cls-25" d="M444.77,133.5l31.4,55.79-13.07-5.68L510.78,165a10.34,10.34,0,1,1,7.52,19.27l-.07,0-47.82,18.26-1.19.46a9,9,0,0,1-11.57-5.18,8.25,8.25,0,0,1-.31-1l-16-62a1.84,1.84,0,0,1,3.39-1.36Z" transform="translate(-27.74 -38.82)"/><path class="cls-25" d="M529.28,113.34a4,4,0,1,1-4-4A4,4,0,0,1,529.28,113.34Z" transform="translate(-27.74 -38.82)"/><path class="cls-25" d="M627,172.68c-1.11,1.37-35.28,34.11-37.26,34.42a9.61,9.61,0,0,1-1.3.1,7.65,7.65,0,0,1-6.72-3.69c-2.41-4.34-4.95-8.84-7.39-13.1-1.73-3-3.41-5.94-5-8.58s-3.34-5.23-5-7.84c-1.52-2.38-3.41-5-4-7.85-1.16-5.54,4.85-8.64,9.56-7.15a7.57,7.57,0,0,1,2.8,1.58,17.18,17.18,0,0,1,2.58,3.18c3.14,4.63,5.83,9.45,8.55,14.32.34.61,4.48,7.7,4.34,7.8l36.92-21S626.34,166,627,172.68Z" transform="translate(-27.74 -38.82)"/><path class="cls-25" d="M562,169.77h0Z" transform="translate(-27.74 -38.82)"/><path class="cls-31" d="M517.65,139.93a23.4,23.4,0,0,0-15,18c-1.73,10.3,5.67,16,6.79,25.33,1,7.93-.87,15.95-1.62,23.81a10.71,10.71,0,0,0,.3,5c1.39,3.58,5.9,4.61,9.73,5a140.58,140.58,0,0,0,36.07-1.33,16.3,16.3,0,0,0,6.63-2.19c4.52-3.09,5-9.63,3.87-15s-3.55-10.59-3.18-16.06c.48-7,5.42-13.28,7.71-19.82a16.88,16.88,0,0,0,1-8.24c-1.18-7.71-8.8-12.74-16.22-15.16A55.63,55.63,0,0,0,517.65,139.93Z" transform="translate(-27.74 -38.82)"/><path class="cls-31" d="M555,204a39,39,0,0,0,26.74-31c-2.77-6.16-6.55-13.94-10.32-19.55a17.19,17.19,0,0,0-4.75-5.21c-2-1.27-4.71-1.69-6.72-.44a9.12,9.12,0,0,0-3.08,4.19C549.08,169,548.9,186.28,555,204Z" transform="translate(-27.74 -38.82)"/><path class="cls-31" d="M515,205.48c-10.57-8.26-21.67-17.25-26.44-30.51-2.66-7.4,5.49-13.88,10.92-19.13l7.1-6.86c3.85-3.72,8.33-7.68,13.43-7.14a4.28,4.28,0,0,1,3.14,1.56,6.37,6.37,0,0,1,.9,3.33c.78,11.91-3.43,23.43-5.59,35.13C517.15,189.1,514.81,198.09,515,205.48Z" transform="translate(-27.74 -38.82)"/><path class="cls-25" d="M549.93,138.68a13.9,13.9,0,0,1-6.81-14.31h-9.9c.13,3.86-2.18,6.61-4.31,9.84-1.11,1.68-2.43,3.43-4.37,4,2.8,3.75,7.64,5.62,12.32,5.74S547,142.28,549.93,138.68Z" transform="translate(-27.74 -38.82)"/><circle class="cls-25" cx="520.38" cy="74.41" r="3.99"/><path class="cls-25" d="M535.75,127.41h0a10.38,10.38,0,0,1-10.35-10.35v-15a10.38,10.38,0,0,1,10.35-10.35h0a10.38,10.38,0,0,1,10.35,10.35v15A10.38,10.38,0,0,1,535.75,127.41Z" transform="translate(-27.74 -38.82)"/><path class="cls-17" d="M538.85,116.91a4.2,4.2,0,0,1-8.38-.11Z" transform="translate(-27.74 -38.82)"/><path class="cls-14" d="M553.84,208.47h-37.9c-8.54,7.8-13.4,20.81-13.6,32.38s3.84,23,10.4,32.54h54.33c4.47-11.52,6.51-24,4.35-36.18S563.47,216.23,553.84,208.47Z" transform="translate(-27.74 -38.82)"/><path class="cls-32" d="M537.75,273.32q-1.39-18.17-1.59-36.38a.77.77,0,0,0-1.53,0q.18,18.21,1.59,36.38c.08,1,1.6,1,1.53,0Z" transform="translate(-27.74 -38.82)"/><path class="cls-32" d="M536,251.59a26.5,26.5,0,0,1-8-7.44.79.79,0,0,0-1-.28.78.78,0,0,0-.27,1,28.38,28.38,0,0,0,8.52,8,.77.77,0,0,0,.78-1.32Z" transform="translate(-27.74 -38.82)"/><path class="cls-33" d="M507.82,201.64c1.15-4.21,2.49-8.38,4-12.47a3.22,3.22,0,0,0,.27-1.17,3.18,3.18,0,0,0-.72-1.57,32.85,32.85,0,0,1-5.73-16.06" transform="translate(-27.74 -38.82)"/><path class="cls-33" d="M569.39,166.72a24.34,24.34,0,0,1-8.77,18.42c1.06,3.72,2.37,8.16,3.43,11.88" transform="translate(-27.74 -38.82)"/><path class="cls-14" d="M515.52,209.57c-8.73,9.09-14.12,21.1-16.31,33.51s-1.3,25.25,1.42,37.56c2.48,11.29,6.5,22.33,7.23,33.87h18.8c3.11-9.07,6-19.47,7.09-29s-.09-19.59-5-27.79c-2.7-4.46-6.55-8.56-7.14-13.73-.49-4.26,1.36-8.4,2.08-12.62C525,223.43,521.51,215,515.52,209.57Z" transform="translate(-27.74 -38.82)"/><path class="cls-14" d="M539,266.3c-.84,9.07,1.11,18.18,3.9,26.85s6.39,17.06,9,25.77c-5.61,16.26-3.93,33.15-1.16,50.13,2.66,16.34,5.27,35.29,10.12,51.12l14.58,1.22-1.88-169.66c-.41-4.24-1.32-8.56-3.88-12s-6.81-5.77-11-5.21c-5.7.75-9.47,6.13-12.31,11.13a38.76,38.76,0,0,0-4.3,9.73C541.21,258.87,537.29,263.16,539,266.3Z" transform="translate(-27.74 -38.82)"/><path class="cls-5" d="M620.14,169.5a15,15,0,0,1,.75-4.87,5,5,0,0,1,3.47-3.23c1.13-.22,2.47,0,3.31-.74a4.81,4.81,0,0,0,.86-1.41,5.33,5.33,0,0,1,1.66-1.84,1.91,1.91,0,0,1,1.24-.41,1.86,1.86,0,0,1,1.41,1.4,4,4,0,0,1-.48,3.34,2.05,2.05,0,0,1,2.53.43,1.94,1.94,0,0,1-.15,2.47,3,3,0,0,1,2.92,2.7,6.2,6.2,0,0,1-1.53,3.92,12.41,12.41,0,0,1-10.43,5,7.1,7.1,0,0,1-2.9-.8C620.81,174.32,620.05,171.76,620.14,169.5Z" transform="translate(-27.74 -38.82)"/><path class="cls-23" d="M627.63,160.86a14.77,14.77,0,0,1,5.09,3.87,3.27,3.27,0,0,1,.76,1.31,1.27,1.27,0,0,1-.45,1.35c-.69.47-1.59-.11-2.22-.67l-1.72-1.5a7,7,0,0,1-4.36,4.22" transform="translate(-27.74 -38.82)"/><path class="cls-16" d="M514.35,89.93a17.32,17.32,0,0,0,26,11c4,4.37,12.21,4.1,17,.61-2.12-7.43-7.83-13.85-15.38-15.46S522,88.76,514.35,89.93Z" transform="translate(-27.74 -38.82)"/><path class="cls-28" d="M517.28,415.26c1.41,5.23-.46,11.16-4.44,14.06-2.7,2-6.05,2.53-9.09,3.81a23.46,23.46,0,0,0-12.81,14.48l41.7-4-3.7-29.91Z" transform="translate(-27.74 -38.82)"/><path class="cls-17" d="M503.75,433.13c3-1.28,6.39-1.85,9.09-3.81A12.4,12.4,0,0,0,517.4,422c1,1.24,2,2.5,3,3.68a13.34,13.34,0,0,0,3.42,3,5.22,5.22,0,0,0,4.09.47,7.43,7.43,0,0,0,2.71-1.6l2,16.18-41.7,4A23.46,23.46,0,0,1,503.75,433.13Z" transform="translate(-27.74 -38.82)"/><path class="cls-28" d="M492.19,450l40.59-3.86a2.17,2.17,0,0,0,1.81-2.53h0a2.32,2.32,0,0,0-2.39-2.14l-40.59,3.87a2.17,2.17,0,0,0-1.81,2.53h0A2.32,2.32,0,0,0,492.19,450Z" transform="translate(-27.74 -38.82)"/><path class="cls-28" d="M520.31,430.74h0a1.35,1.35,0,0,0-.22-1.76l-7.2-6.43a1,1,0,0,0-1.58.15h0a1.36,1.36,0,0,0,.21,1.76l7.21,6.43A1,1,0,0,0,520.31,430.74Z" transform="translate(-27.74 -38.82)"/><path class="cls-28" d="M516.6,434.35h0a1.36,1.36,0,0,0-.21-1.76l-7.21-6.43a1,1,0,0,0-1.58.15h0a1.35,1.35,0,0,0,.22,1.76l7.2,6.43A1,1,0,0,0,516.6,434.35Z" transform="translate(-27.74 -38.82)"/><path class="cls-14" d="M507.86,313.46h0c-5.61,16.43-5.05,33.45-2.28,50.6,2.66,16.5,5.27,35.65,10.12,51.64l14.57,1.23-3.61-103.47Z" transform="translate(-27.74 -38.82)"/></g></svg>